<svg width="1000" height="400" viewBox="0 0 1000 400" fill="none" xmlns="http://www.w3.org/2000/svg">
  <g transform="translate(150, 140)">
    <path d="M45,0 H20 C9,0 0,9 0,20 V80 C0,91 9,100 20,100 H45 C65,100 80,85 80,65 C80,45 65,30 45,30 C65,30 80,15 80,-5 C80,-25 65,-40 45,-40" stroke="white" stroke-width="10" stroke-linecap="round" stroke-linejoin="round"/>
    <path d="M75,30 C95,30 110,45 110,65 C110,85 95,100 75,100 H100 C122,100 140,82 140,60 C140,38 122,20 100,20 C122,20 140,2 140,-20 C140,-42 122,-60 100,-60 H75 C55,-60 40,-45 40,-25" stroke="white" stroke-width="10" stroke-linecap="round" stroke-linejoin="round"/>
    <path d="M25,40 H45 C55,40 60,45 60,50 C60,55 55,60 45,60 L65,80" stroke="white" stroke-width="10" stroke-linecap="round" stroke-linejoin="round"/>
  </g>
  <text x="350" y="225" font-family="Arial, sans-serif" font-size="92" font-weight="bold" fill="white" letter-spacing="-1">Bunorden</text>
</svg>
